<svg xmlns="http://www.w3.org/2000/svg" viewBox="0 0 24 24" role="img" aria-label="ViperMesh icon">
  <path fill="#E87D0D" d="M10.73.156a.541.541 0 0 0-.382.678l1.32 4.373H8.748a.553.553 0 0 0-.541.54v2.044a.553.553 0 0 0 .54.54h3.536l-1.061 4.48H8.73a.553.553 0 0 0-.541.54v2.044a.553.553 0 0 0 .54.54h1.752L9.082 21.8a.541.541 0 0 0 .382.678l1.99.537a.541.541 0 0 0 .678-.383l1.622-6.036h2.49a.553.553 0 0 0 .54-.54v-2.044a.553.553 0 0 0-.54-.54h-1.645l1.062-4.48h2.583a.553.553 0 0 0 .54-.541V6.406a.553.553 0 0 0-.54-.54H16.4L17.8.99a.541.541 0 0 0-.382-.678L15.428.156a.541.541 0 0 0-.678.383l-1.53 5.328h-2.428L9.4.538a.541.541 0 0 0-.678-.382z"/>
</svg>
